Coordinates
version=1
nRows=6
nColumns=107
inDegrees=yes

Units are S.I. units (second, meters, Newtons, ...)
If the header above contains a line with 'inDegrees', this indicates whether rotational values are in degrees (yes) or radians (no).

endheader
time	sternoclavicular_r2	sternoclavicular_r3	unrotscap_r3	unrotscap_r2	acromioclavicular_r2	acromioclavicular_r3	acromioclavicular_r1	unrothum_r1	unrothum_r3	unrothum_r2	elv_angle	shoulder_elv	shoulder1_r2	shoulder_rot	elbow_flexion	pro_sup	deviation	flexion	proximal_distal_r1	proximal_distal_r3	cmc_flexion	cmc_abduction	mp_flexion	ip_flexion	mcp2_flexion	mcp2_abduction	pm2_flexion	md2_flexion	mcp3_flexion	mcp3_abduction	pm3_flexion	md3_flexion	mcp4_flexion	mcp4_abduction	pm4_flexion	md4_flexion	mcp5_flexion	mcp5_abduction	pm5_flexion	md5_flexion	bicpt_tx	bicpt_ty	bicpt_tz	bicpt2_tx	bicpt2_ty	bicpt2_tz	ptpt_tx	ptpt_ty	ptpt_tz	FCUpt_tx	FCUpt_ty	FCUpt_tz	EDCpt_tx	EDCpt_ty	EDCpt_tz	APLpt_tx	APLpt_ty	APLpt_tz	FPLpt_tx	FPLpt_ty	FPLpt_tz	FPLpt2_tx	FPLpt2_ty	FPLpt2_tz	PEC1pt2_tx	PEC1pt2_ty	PEC1pt2_tz	PEC1pt3_tx	PEC1pt3_ty	PEC1pt3_tz	PEC2pt2_tx	PEC2pt2_ty	PEC2pt2_tz	PEC2pt3_tx	PEC2pt3_ty	PEC2pt3_tz	PEC3pt2_tx	PEC3pt2_ty	PEC3pt2_tz	PEC3pt3_tx	PEC3pt3_ty	PEC3pt3_tz	DELT2pt2a_tx	DELT2pt2a_ty	DELT2pt2a_tz	DELT2pt2_tx	DELT2pt2_ty	DELT2pt2_tz	LAT1pt2_tx	LAT1pt2_ty	LAT1pt2_tz	LAT1pt3_tx	LAT1pt3_ty	LAT1pt3_tz	LAT2pt2_tx	LAT2pt2_ty	LAT2pt2_tz	LAT2pt3_tx	LAT2pt3_ty	LAT2pt3_tz	LAT3pt2_tx	LAT3pt2_ty	LAT3pt2_tz	LAT3pt3_tx	LAT3pt3_ty	LAT3pt3_tz
      1.56666667	     -0.30701441	      0.13003681	     -0.13003681	      0.30701441	     -0.06216417	      0.50238897	      0.22582039	     -0.22582039	     -0.50238897	      0.06216417	    105.29611821	     72.68838955	     -1.83776395	    -49.93515024	     30.39715975	     82.12708730	      0.31413003	      0.12318095	      0.34555054	      0.06159048	     31.05849568	    -15.94327763	     -8.14076355	     10.74023400	      3.53931644	     -7.50286378	     20.71999534	    -17.08671307	      3.09003045	    -10.37393492	      9.82399944	     12.14483610	     -7.14376337	     -9.36318761	      4.64400500	     21.60815982	    -23.54371197	    -11.10262489	     16.08834737	      5.09257348	      0.00090544	     -0.03108398	     -0.00486118	      0.01462309	     -0.01845754	     -0.00172875	      0.00148173	     -0.06882384	     -0.00666578	      0.01229541	     -0.18236676	     -0.00001723	     -0.00985523	      0.00336780	     -0.00063692	     -0.00013874	     -0.00005550	     -0.00027748	     -0.00017759	     -0.00053276	     -0.00029967	     -0.00000988	     -0.00024056	     -0.00028867	      0.00238257	      0.00835917	      0.00581508	     -0.00779382	      0.01881823	     -0.01784905	      0.00238257	      0.00835917	      0.00581508	      0.00052497	      0.01744523	     -0.00916682	      0.00381404	      0.00464843	      0.01563108	      0.00000000	      0.00706183	      0.00000000	     -0.00682464	     -0.03153871	     -0.00581846	      0.02505747	     -0.00147961	     -0.01914116	     -0.00084803	      0.01421463	     -0.00581508	      0.00234218	      0.02051430	     -0.01696064	     -0.00569393	      0.01231665	     -0.00520934	     -0.01187245	      0.02600631	     -0.02911576	     -0.02229112	      0.01377042	     -0.00698617	     -0.01477999	      0.03004456	     -0.03638461
      1.60000000	     -0.30700883	      0.13003445	     -0.13003445	      0.30700883	     -0.06216304	      0.50237984	      0.22581628	     -0.22581628	     -0.50237984	      0.06216304	    105.44455787	     72.68706881	     -1.84035471	    -50.37290128	     30.17847424	     81.98730251	      0.30550457	      0.10435910	      0.33821900	      0.05217955	     31.20826556	    -15.65820534	     -8.14067269	     10.82224082	      2.11744182	     -8.20640088	     19.80940820	    -21.23691143	      1.08027585	    -10.82396041	      8.92711035	     11.16076836	     -7.95396291	     -9.16482327	      0.63520434	     20.46931906	    -25.30546102	    -10.69239295	     12.98155908	      5.06191519	      0.00089821	     -0.03105891	     -0.00485714	      0.01463628	     -0.01839813	     -0.00175192	      0.00149206	     -0.06881716	     -0.00665452	      0.01227952	     -0.18237134	     -0.00002066	     -0.00983845	      0.00336030	     -0.00063273	     -0.00011589	     -0.00004636	     -0.00023179	     -0.00014834	     -0.00044503	     -0.00025033	     -0.00001005	     -0.00023914	     -0.00028697	      0.00238252	      0.00835902	      0.00581497	     -0.00779368	      0.01881789	     -0.01784873	      0.00238252	      0.00835902	      0.00581497	      0.00052496	      0.01744491	     -0.00916665	      0.00381399	      0.00464834	      0.01563095	      0.00000000	      0.00706157	      0.00000000	     -0.00682451	     -0.03153814	     -0.00581825	      0.02513353	     -0.00149608	     -0.01942922	     -0.00084802	      0.01421437	     -0.00581497	      0.00234214	      0.02051392	     -0.01696033	     -0.00569383	      0.01231643	     -0.00520924	     -0.01187223	      0.02600584	     -0.02911523	     -0.02229072	      0.01377017	     -0.00698604	     -0.01477972	      0.03004401	     -0.03638395
      1.63333333	     -0.30737107	      0.13018788	     -0.13018788	      0.30737107	     -0.06223639	      0.50297261	      0.22608273	     -0.22608273	     -0.50297261	      0.06223639	    105.33153458	     72.77283385	     -1.83838208	    -49.99288313	     29.86085848	     78.80761304	      0.28742365	      0.06010204	      0.32245556	      0.03005102	     29.18773935	    -13.49599377	     -4.98430009	      5.69451213	      0.25574914	     -7.55028944	     22.80365513	    -28.68933910	     -2.27932121	    -10.04370117	     10.80493727	     14.22576770	     -9.71373929	     -7.90095609	     -3.81938534	     24.98695180	    -28.27241849	     -8.91771571	     11.20964622	      5.03829299	      0.00088770	     -0.03102251	     -0.00485128	      0.01492420	     -0.01831185	     -0.00227146	      0.00172701	     -0.06866524	     -0.00639838	      0.01191975	     -0.18247395	     -0.00009482	     -0.00945689	      0.00319130	     -0.00054029	     -0.00006452	     -0.00002581	     -0.00012903	     -0.00008258	     -0.00024774	     -0.00013935	     -0.00000738	     -0.00025640	     -0.00030768	      0.00238533	      0.00836888	      0.00582183	     -0.00780287	      0.01884009	     -0.01786979	      0.00238533	      0.00836888	      0.00582183	      0.00052558	      0.01746549	     -0.00917747	      0.00381734	      0.00465383	      0.01563961	      0.00000000	      0.00707835	      0.00000000	     -0.00683257	     -0.03157535	     -0.00583219	      0.02506765	     -0.00148178	     -0.01917909	     -0.00084902	      0.01423114	     -0.00582183	      0.00234490	      0.02053813	     -0.01698034	     -0.00570054	      0.01233096	     -0.00521539	     -0.01188624	      0.02603652	     -0.02914959	     -0.02231702	      0.01378642	     -0.00699428	     -0.01479716	      0.03007946	     -0.03642688
      1.66666667	     -0.30768265	      0.13031985	     -0.13031985	      0.30768265	     -0.06229948	      0.50348247	      0.22631191	     -0.22631191	     -0.50348247	      0.06229948	    105.08352297	     72.84660330	     -1.83405347	    -48.94847810	     30.12034705	     81.39454809	      0.32055467	      0.15310116	      0.35093214	      0.07655058	     31.37617756	    -15.96472851	     -7.37382274	     10.65618517	     -0.26705815	     -8.86087831	     19.54003699	    -26.70068245	     -1.60321546	    -11.16153495	      8.20562463	     10.64589212	     -9.15698060	     -8.97460248	     -3.66721884	     20.28142502	    -27.33486126	    -10.19578042	      9.56352944	      5.05723779	      0.00089629	     -0.03105225	     -0.00485607	      0.01469171	     -0.01838234	     -0.00184985	      0.00153586	     -0.06878884	     -0.00660677	      0.01221222	     -0.18239068	     -0.00003507	     -0.00976732	      0.00332856	     -0.00061508	     -0.00017627	     -0.00007051	     -0.00035255	     -0.00022563	     -0.00067689	     -0.00038075	     -0.00001023	     -0.00023748	     -0.00028498	      0.00238775	      0.00837737	      0.00582773	     -0.00781078	      0.01885919	     -0.01788790	      0.00238775	      0.00837737	      0.00582773	      0.00052611	      0.01748320	     -0.00918677	      0.00382022	      0.00465855	      0.01564704	      0.00000000	      0.00709279	      0.00000000	     -0.00683949	     -0.03160736	     -0.00584419	      0.02487671	     -0.00144253	     -0.01849534	     -0.00084988	      0.01424557	     -0.00582773	      0.00234728	      0.02055895	     -0.01699756	     -0.00570632	      0.01234346	     -0.00522068	     -0.01189829	      0.02606292	     -0.02917914	     -0.02233964	      0.01380040	     -0.00700137	     -0.01481216	      0.03010995	     -0.03646380
      1.70000000	     -0.30772836	      0.13033921	     -0.13033921	      0.30772836	     -0.06230873	      0.50355726	      0.22634552	     -0.22634552	     -0.50355726	      0.06230873	    105.08703656	     72.85742399	     -1.83411479	    -48.94588129	     30.12834962	     81.39636172	      0.32058412	      0.15305395	      0.35095639	      0.07652697	     31.37599724	    -15.96453325	     -7.37387435	     10.65618157	     -0.26923056	     -8.86077101	     19.53956088	    -26.70106673	     -1.60461481	    -11.16144556	      8.20535735	     10.64580969	     -9.15778383	     -8.97465121	     -3.66775053	     20.28131867	    -27.33774719	    -10.19554642	      9.56239826	      5.05708344	      0.00089655	     -0.03105317	     -0.00485622	      0.01469153	     -0.01838451	     -0.00184955	      0.00153573	     -0.06878893	     -0.00660691	      0.01221242	     -0.18239062	     -0.00003502	     -0.00976754	      0.00332865	     -0.00061514	     -0.00017621	     -0.00007049	     -0.00035243	     -0.00022555	     -0.00067666	     -0.00038062	     -0.00001023	     -0.00023748	     -0.00028498	      0.00238811	      0.00837861	      0.00582860	     -0.00781194	      0.01886199	     -0.01789056	      0.00238811	      0.00837861	      0.00582860	      0.00052619	      0.01748580	     -0.00918814	      0.00382065	      0.00465924	      0.01564812	      0.00000000	      0.00709491	      0.00000000	     -0.00684051	     -0.03161205	     -0.00584595	      0.02487616	     -0.00144243	     -0.01849367	     -0.00085000	      0.01424769	     -0.00582860	      0.00234763	      0.02056200	     -0.01700008	     -0.00570717	      0.01234530	     -0.00522145	     -0.01190006	      0.02606679	     -0.02918347	     -0.02234296	      0.01380245	     -0.00700241	     -0.01481436	      0.03011443	     -0.03646922
      1.73333333	     -0.30774775	      0.13034742	     -0.13034742	      0.30774775	     -0.06231266	      0.50358899	      0.22635979	     -0.22635979	     -0.50358899	      0.06231266	    105.20595422	     72.86201503	     -1.83619029	    -49.24902765	     29.76719624	     80.25303034	      0.29827235	      0.07323022	      0.33197889	      0.03661511	     31.15197619	    -15.51246149	     -8.12526536	     11.26610988	      0.78912896	     -9.01078425	     18.15076604	    -28.16756668	     -0.94530534	    -11.29979957	      7.98599894	     10.15694455	     -8.52302413	     -9.05161346	     -4.25306655	     19.26653085	    -27.92902176	    -10.08926123	      9.57814722	      5.02522903	      0.00088461	     -0.03101178	     -0.00484955	      0.01479623	     -0.01828640	     -0.00203707	      0.00162021	     -0.06873430	     -0.00651481	      0.01208290	     -0.18242767	     -0.00006207	     -0.00963034	      0.00326773	     -0.00058162	     -0.00007939	     -0.00003176	     -0.00015878	     -0.00010162	     -0.00030485	     -0.00017148	     -0.00000999	     -0.00023968	     -0.00028762	      0.00238826	      0.00837914	      0.00582897	     -0.00781243	      0.01886318	     -0.01789169	      0.00238826	      0.00837914	      0.00582897	      0.00052623	      0.01748690	     -0.00918872	      0.00382083	      0.00465953	      0.01564859	      0.00000000	      0.00709581	      0.00000000	     -0.00684094	     -0.03161405	     -0.00584670	      0.02493312	     -0.00145382	     -0.01869155	     -0.00085006	      0.01424858	     -0.00582897	      0.00234778	      0.02056330	     -0.01700115	     -0.00570753	      0.01234607	     -0.00522178	     -0.01190081	      0.02606843	     -0.02918531	     -0.02234437	      0.01380332	     -0.00700286	     -0.01481529	      0.03011632	     -0.03647152
